<svg width="450" height="450" viewBox="0 0 450 450" fill="none" xmlns="http://www.w3.org/2000/svg">
<path d="M412.5 206.25V243.75C412.5 314.461 412.5 349.816 390.533 371.783C372.264 390.052 344.736 393.127 295.312 393.645V56.3548C344.736 56.8726 372.264 59.9483 390.533 78.217C412.5 100.184 412.5 135.539 412.5 206.25Z" fill="#5445FF"/>
<path fill-rule="evenodd" clip-rule="evenodd" d="M187.5 56.25H262.5H267.187L267.188 393.75H262.5H187.5C116.789 393.75 81.434 393.75 59.467 371.783C37.5 349.816 37.5 314.461 37.5 243.75V206.25C37.5 135.539 37.5 100.184 59.467 78.217C81.434 56.25 116.789 56.25 187.5 56.25ZM89.0625 187.5C89.0625 179.733 95.3585 173.438 103.125 173.438H215.625C223.392 173.438 229.688 179.733 229.688 187.5C229.688 195.267 223.392 201.562 215.625 201.562H103.125C95.3585 201.562 89.0625 195.267 89.0625 187.5ZM107.812 262.5C107.812 254.733 114.108 248.438 121.875 248.438H196.875C204.642 248.438 210.938 254.733 210.938 262.5C210.938 270.267 204.642 276.562 196.875 276.562H121.875C114.108 276.562 107.812 270.267 107.812 262.5Z" fill="#5445FF"/>
</svg>
